<svg width="750" height="750" viewBox="0 0 750 750" fill="none" xmlns="http://www.w3.org/2000/svg">
<g clip-path="url(#clip0_463_389)">
<path d="M750 0H0V750H750V0Z" fill="#24425C"/>
<mask id="mask0_463_389" style="mask-type:luminance" maskUnits="userSpaceOnUse" x="15" y="86" width="718" height="454">
<path d="M733 86H15V540H733V86Z" fill="white"/>
</mask>
<g mask="url(#mask0_463_389)">
<path d="M577.289 215.017H146.755C113.68 215.017 86.8667 243.118 86.8667 277.782V477.235C86.8667 511.899 113.68 540 146.755 540H577.289C610.365 540 637.178 511.899 637.178 477.235V277.782C637.178 243.118 610.365 215.017 577.289 215.017Z" fill="#A5C3DD"/>
<path d="M611.892 299.401C640.557 299.401 663.795 275.203 663.795 245.353C663.795 215.504 640.557 191.306 611.892 191.306C583.226 191.306 559.988 215.504 559.988 245.353C559.988 275.203 583.226 299.401 611.892 299.401Z" fill="#F8D849"/>
<path d="M529.756 187.058C546.502 197.471 561.206 203.867 562.597 201.343C563.988 198.82 551.54 188.333 534.793 177.92C518.047 167.507 503.343 161.112 501.952 163.635C500.561 166.159 513.009 176.646 529.756 187.058Z" fill="#F8D849"/>
<path d="M613.691 154.849C612.796 164.504 613.924 172.524 616.21 172.763C618.496 173.002 621.074 165.369 621.969 155.714C622.863 146.06 621.736 138.04 619.45 137.801C617.164 137.562 614.586 145.195 613.691 154.849Z" fill="#F8D849"/>
<path d="M654.818 150.112C664.88 132.237 671.122 116.53 668.758 115.03C666.395 113.529 656.322 126.803 646.26 144.678C636.197 162.553 629.956 178.26 632.319 179.761C634.682 181.261 644.755 167.987 654.818 150.112Z" fill="#F8D849"/>
<path d="M688.516 241.874C694.703 240.814 699.457 238.228 699.133 236.097C698.81 233.966 693.531 233.098 687.344 234.158C681.156 235.217 676.402 237.804 676.726 239.935C677.05 242.066 682.328 242.934 688.516 241.874Z" fill="#F8D849"/>
<path d="M662.805 193.459C666.776 189.893 669.19 185.993 668.199 184.747C667.207 183.501 663.184 185.382 659.214 188.947C655.243 192.513 652.828 196.413 653.82 197.659C654.812 198.904 658.835 197.024 662.805 193.459Z" fill="#F8D849"/>
<path d="M694.817 208.648C709.442 204.994 720.927 200.357 720.469 198.291C720.012 196.225 707.785 197.513 693.16 201.167C678.535 204.822 667.05 209.459 667.508 211.525C667.965 213.59 680.192 212.303 694.817 208.648Z" fill="#F8D849"/>
<path d="M679.496 290.755C687.095 295.53 694.081 297.92 695.098 296.094C696.115 294.267 690.78 288.916 683.18 284.141C675.581 279.366 668.596 276.976 667.578 278.803C666.561 280.629 671.897 285.981 679.496 290.755Z" fill="#F8D849"/>
<path d="M706.515 268.988C720.411 271.741 731.973 272.281 732.34 270.195C732.706 268.109 721.738 264.186 707.842 261.433C693.945 258.681 682.383 258.14 682.017 260.227C681.65 262.313 692.619 266.235 706.515 268.988Z" fill="#F8D849"/>
<path d="M572.709 183.817C575.99 189.106 580.247 192.276 582.216 190.898C584.185 189.52 583.122 184.115 579.841 178.826C576.559 173.537 572.303 170.367 570.334 171.745C568.364 173.123 569.428 178.527 572.709 183.817Z" fill="#F8D849"/>
<path d="M577.683 135.889C586.927 162.165 596.511 182.637 599.09 181.614C601.669 180.59 596.267 158.459 587.023 132.183C577.779 105.906 568.195 85.4347 565.616 86.4581C563.037 87.4815 568.439 109.612 577.683 135.889Z" fill="#F8D849"/>
<path d="M133.419 173.68C146.462 193.484 132.623 217.084 112.052 226.357C91.4822 235.63 67.6976 227.079 58.9279 207.259C50.1581 187.439 59.7242 163.854 80.2945 154.582C100.865 145.309 124.649 153.859 133.419 173.68Z" fill="#D0EAEC"/>
<path d="M257.103 193.787C263.206 207.58 250.251 213.419 238.126 218.885C225.533 224.562 212.033 221.724 207.972 212.546C203.911 203.369 203.929 187.81 223.146 185.027C235.738 179.351 253.043 184.61 257.103 193.787Z" fill="#D0EAEC"/>
<path d="M131.301 227.511C140.086 247.365 130.603 270.945 110.121 280.178C61.8298 311.397 65.9144 280.8 57.1296 260.946C48.3449 241.092 57.8273 217.513 78.3092 208.28C98.7913 199.047 122.516 207.657 131.301 227.511Z" fill="#D0EAEC"/>
<path d="M220.01 196.058C228.794 215.912 219.763 240.302 199.281 249.535C162.996 277.172 154.623 249.346 145.838 229.493C137.053 209.639 146.536 186.059 167.018 176.826C187.5 167.593 211.225 176.204 220.01 196.058Z" fill="#D0EAEC"/>
<path d="M191.044 210.272C199.816 230.096 193.224 263.631 170.185 263.42C149.763 272.626 125.861 263.433 117.09 243.609C108.318 223.785 117.762 200.252 138.185 191.046C158.607 181.84 182.273 190.448 191.044 210.272Z" fill="#D0EAEC"/>
<path d="M186.513 175.614C189.795 183.032 182.171 197.906 168.027 200.316C154.49 206.419 140.772 205.13 137.489 197.712C130.156 192.932 142.52 179.334 156.058 173.231C169.595 167.129 183.231 168.195 186.513 175.614Z" fill="#D0EAEC"/>
<path d="M102.299 241.023C111.081 260.872 101.596 284.448 81.113 293.682C60.6299 302.915 30.8991 294.272 22.1166 274.423C13.3341 254.574 22.8193 230.998 43.3024 221.765C63.7855 212.532 93.5161 221.174 102.299 241.023Z" fill="#D0EAEC"/>
<path d="M71.5415 259.542C92.0945 250.277 101.599 226.592 92.771 206.639C83.9427 186.687 60.1245 178.023 39.5715 187.288C19.0186 196.553 9.5139 220.238 18.3421 240.19C27.1704 260.143 50.9886 268.807 71.5415 259.542Z" fill="#D0EAEC"/>
<path d="M146.473 432.993C146.473 433.3 145.648 433.551 143.998 433.746C142.374 433.913 140.737 433.997 139.087 433.997C137.463 433.997 136.425 433.927 135.973 433.788C135.547 433.621 135.334 433.356 135.334 432.993V415H129.784C129.492 415 129.239 414.61 129.026 413.829C128.813 413.048 128.706 411.89 128.706 410.356C128.706 408.794 128.866 407.399 129.185 406.171C129.505 404.916 129.931 404.288 130.463 404.288H152.063C152.462 404.288 152.728 404.679 152.861 405.46C153.021 406.241 153.101 407.371 153.101 408.849C153.101 410.328 152.955 411.723 152.662 413.034C152.369 414.345 151.97 415 151.464 415H146.473V432.993ZM168.287 432.993V421.36C168.287 419.268 168.208 417.748 168.048 416.8C167.888 415.851 167.502 415.377 166.89 415.377C166.358 415.377 166.092 415.753 166.092 416.507V432.993C166.092 433.3 165.32 433.551 163.776 433.746C162.232 433.913 160.648 433.997 159.025 433.997C157.401 433.997 156.376 433.927 155.95 433.788C155.524 433.621 155.312 433.356 155.312 432.993V403.996C155.312 403.41 156.083 402.824 157.627 402.238C159.171 401.652 160.795 401.359 162.498 401.359C164.282 401.359 165.413 401.708 165.892 402.405C166.052 402.629 166.131 402.866 166.131 403.117V409.268L165.692 412.155H165.972C166.344 411.569 166.93 411.053 167.729 410.607C169.219 409.77 170.843 409.351 172.599 409.351C175.128 409.351 176.832 410.202 177.71 411.904C178.615 413.578 179.067 416.311 179.067 420.105V432.993C179.067 433.3 178.282 433.551 176.712 433.746C175.168 433.913 173.584 433.997 171.961 433.997C170.364 433.997 169.352 433.927 168.926 433.788C168.5 433.621 168.287 433.356 168.287 432.993ZM192.364 424.541C192.364 426.354 193.189 427.26 194.839 427.26C195.798 427.26 197.049 426.926 198.593 426.256C200.136 425.559 200.948 425.21 201.028 425.21C201.534 425.21 202.199 426.005 203.024 427.595C203.849 429.185 204.262 430.357 204.262 431.11C204.262 432.198 203.197 433.021 201.068 433.579C198.939 434.137 196.849 434.416 194.8 434.416C192.777 434.416 191.073 434.248 189.689 433.913C188.332 433.579 187.214 433.16 186.335 432.658C185.484 432.128 184.725 431.487 184.06 430.733C183.421 429.98 182.942 429.269 182.622 428.599C182.303 427.902 182.05 427.135 181.864 426.298C181.597 425.071 181.464 423.801 181.464 422.49C181.464 417.413 182.729 413.912 185.257 411.988C186.508 411.011 187.906 410.328 189.449 409.937C190.993 409.547 192.817 409.351 194.919 409.351C201.654 409.351 205.021 411.806 205.021 416.716C205.021 421.932 201.241 424.541 193.682 424.541H192.364ZM192.284 418.431V421.193C193.056 421.193 193.682 420.872 194.161 420.231C194.666 419.589 194.919 418.808 194.919 417.887C194.919 416.214 194.507 415.377 193.682 415.377C192.75 415.377 192.284 416.395 192.284 418.431ZM233.538 432.993C233.538 433.3 232.713 433.551 231.063 433.746C229.439 433.913 227.802 433.997 226.152 433.997C224.528 433.997 223.49 433.927 223.038 433.788C222.612 433.621 222.399 433.356 222.399 432.993V415H216.849C216.556 415 216.304 414.61 216.091 413.829C215.878 413.048 215.771 411.89 215.771 410.356C215.771 408.794 215.931 407.399 216.25 406.171C216.57 404.916 216.996 404.288 217.528 404.288H239.128C239.527 404.288 239.793 404.679 239.926 405.46C240.086 406.241 240.166 407.371 240.166 408.849C240.166 410.328 240.02 411.723 239.727 413.034C239.434 414.345 239.035 415 238.529 415H233.538V432.993ZM253.157 420.775V432.993C253.157 433.3 252.398 433.551 250.881 433.746C249.39 433.913 247.833 433.997 246.209 433.997C244.612 433.997 243.574 433.927 243.095 433.788C242.616 433.621 242.377 433.356 242.377 432.993V412.364C242.377 411.834 243.109 411.262 244.572 410.649C246.063 410.035 247.673 409.728 249.403 409.728C251.16 409.728 252.145 410.23 252.358 411.234L252.757 413.159H253.037C253.409 412.099 254.301 411.206 255.712 410.481C257.122 409.728 258.533 409.351 259.944 409.351C261.355 409.351 262.339 409.589 262.898 410.063C263.484 410.537 263.777 411.151 263.777 411.904C263.777 412.629 263.724 413.564 263.617 414.707C263.511 415.851 263.244 417.092 262.819 418.431C262.419 419.77 261.887 420.44 261.222 420.44C260.955 420.44 260.117 420.231 258.706 419.812C257.296 419.394 256.124 419.185 255.193 419.185C254.288 419.185 253.715 419.324 253.476 419.603C253.263 419.882 253.157 420.273 253.157 420.775ZM273.356 434.374C270.934 434.374 269.031 433.774 267.647 432.574C267.088 432.072 266.596 431.333 266.17 430.357C265.77 429.38 265.571 428.237 265.571 426.926C265.571 425.615 265.864 424.471 266.449 423.494C267.061 422.518 267.793 421.765 268.645 421.235C269.497 420.705 270.495 420.273 271.64 419.938C273.37 419.464 275.273 419.226 277.349 419.226H278.666C278.666 418.083 278.294 417.274 277.549 416.8C277.229 416.604 276.737 416.507 276.071 416.507C275.433 416.507 274.647 416.688 273.716 417.051C272.811 417.413 272.052 417.79 271.44 418.18C270.828 418.543 270.415 418.724 270.202 418.724C269.723 418.724 269.071 418.069 268.246 416.758C267.421 415.419 267.008 414.205 267.008 413.117C267.008 412.755 267.501 412.28 268.485 411.695C269.47 411.109 270.854 410.579 272.638 410.105C274.448 409.602 276.204 409.351 277.908 409.351C279.611 409.351 281.075 409.505 282.3 409.812C283.551 410.091 284.562 410.439 285.334 410.858C286.133 411.276 286.798 411.834 287.33 412.532C287.889 413.229 288.302 413.857 288.568 414.414C288.861 414.972 289.074 415.698 289.207 416.59C289.393 417.622 289.486 418.892 289.486 420.398V432.993C289.486 433.3 288.768 433.551 287.33 433.746C285.92 433.913 284.509 433.997 283.098 433.997C281.714 433.997 280.809 433.955 280.383 433.872C279.984 433.788 279.744 433.69 279.665 433.579C279.585 433.467 279.518 433.272 279.465 432.993L279.146 430.608H278.826C278.161 433.118 276.337 434.374 273.356 434.374ZM278.706 427.428V422.532C278.014 422.532 277.455 422.839 277.03 423.453C276.604 424.066 276.391 424.764 276.391 425.545C276.391 427.386 276.79 428.306 277.588 428.306C277.935 428.306 278.201 428.223 278.387 428.055C278.6 427.86 278.706 427.651 278.706 427.428ZM291.086 412.699C291.086 412.42 291.472 412.057 292.244 411.611C293.016 411.137 294.067 410.704 295.398 410.314C296.729 409.923 298.033 409.728 299.311 409.728C301.893 409.728 303.224 410.384 303.303 411.695L304.302 425.001H304.821L305.699 412.364C305.752 411.667 306.67 411.053 308.454 410.523C310.237 409.993 311.808 409.728 313.165 409.728C314.523 409.728 315.534 409.854 316.199 410.105C316.892 410.356 317.331 410.621 317.517 410.9C317.703 411.151 317.796 411.374 317.796 411.569C317.796 411.764 317.224 413.201 316.08 415.879C314.962 418.557 312.713 424.262 309.332 432.993C309.066 433.662 306.897 433.997 302.824 433.997C301.547 433.997 300.708 433.927 300.309 433.788C299.91 433.621 299.644 433.356 299.51 432.993C297.674 428.139 295.811 423.578 293.921 419.31C292.031 415.014 291.086 412.81 291.086 412.699ZM329.882 424.541C329.882 426.354 330.707 427.26 332.357 427.26C333.316 427.26 334.567 426.926 336.11 426.256C337.654 425.559 338.466 425.21 338.546 425.21C339.052 425.21 339.717 426.005 340.542 427.595C341.367 429.185 341.78 430.357 341.78 431.11C341.78 432.198 340.715 433.021 338.586 433.579C336.457 434.137 334.367 434.416 332.318 434.416C330.295 434.416 328.591 434.248 327.207 433.913C325.85 433.579 324.732 433.16 323.853 432.658C323.001 432.128 322.243 431.487 321.577 430.733C320.939 429.98 320.46 429.269 320.14 428.599C319.821 427.902 319.568 427.135 319.382 426.298C319.115 425.071 318.982 423.801 318.982 422.49C318.982 417.413 320.247 413.912 322.775 411.988C324.026 411.011 325.424 410.328 326.967 409.937C328.511 409.547 330.335 409.351 332.437 409.351C339.171 409.351 342.539 411.806 342.539 416.716C342.539 421.932 338.759 424.541 331.2 424.541H329.882ZM329.802 418.431V421.193C330.574 421.193 331.2 420.872 331.679 420.231C332.184 419.589 332.437 418.808 332.437 417.887C332.437 416.214 332.025 415.377 331.2 415.377C330.268 415.377 329.802 416.395 329.802 418.431ZM355.7 403.284V432.993C355.7 433.3 354.942 433.551 353.424 433.746C351.907 433.913 350.337 433.997 348.713 433.997C347.116 433.997 346.078 433.927 345.599 433.788C345.146 433.621 344.92 433.356 344.92 432.993V404.037C344.92 403.424 345.665 402.824 347.156 402.238C348.673 401.652 350.297 401.359 352.027 401.359C354.476 401.359 355.7 402.001 355.7 403.284ZM387.659 433.704C386.594 433.955 385.503 434.123 384.385 434.206C383.294 434.318 382.216 434.374 381.151 434.374C380.113 434.374 379.301 434.346 378.715 434.29C378.156 434.234 377.411 434.095 376.48 433.872C375.548 433.648 374.696 433.342 373.924 432.951C373.152 432.561 372.327 431.989 371.449 431.235C370.597 430.482 369.878 429.59 369.293 428.558C367.935 426.159 367.257 423.062 367.257 419.268C367.257 416.73 367.629 414.484 368.375 412.532C369.146 410.579 370.065 409.072 371.129 408.012C372.221 406.952 373.458 406.102 374.843 405.46C377.078 404.4 379.328 403.87 381.59 403.87C384.837 403.87 387.166 404.149 388.577 404.707C389.216 404.958 389.788 405.348 390.294 405.878C390.8 406.408 391.052 407.176 391.052 408.18C391.052 409.184 390.813 410.453 390.334 411.988C389.881 413.522 389.216 414.289 388.338 414.289C388.071 414.289 387.086 414.066 385.383 413.619C383.679 413.173 382.522 412.95 381.909 412.95C380.978 412.95 380.179 413.494 379.514 414.582C378.875 415.67 378.556 417.218 378.556 419.226C378.556 421.235 378.835 422.797 379.394 423.913C379.98 425.029 380.738 425.587 381.67 425.587C382.335 425.587 383.533 425.308 385.263 424.75C387.02 424.164 388.045 423.871 388.338 423.871C389.163 423.871 389.801 424.666 390.254 426.256C390.733 427.846 390.973 429.129 390.973 430.106C390.973 431.082 390.68 431.863 390.094 432.449C389.535 433.007 388.723 433.425 387.659 433.704ZM405.955 434.374C403.958 434.374 402.242 434.192 400.804 433.83C399.367 433.467 398.063 432.826 396.892 431.905C394.469 430.064 393.258 426.633 393.258 421.612C393.258 417.148 394.496 413.954 396.971 412.029C399.287 410.244 402.282 409.351 405.955 409.351C407.525 409.351 408.869 409.435 409.987 409.602C411.105 409.742 412.236 410.063 413.381 410.565C414.552 411.067 415.484 411.75 416.176 412.615C416.894 413.48 417.48 414.679 417.933 416.214C418.385 417.72 418.611 419.519 418.611 421.612C418.611 425.852 417.467 429.046 415.178 431.194C412.889 433.314 409.814 434.374 405.955 434.374ZM404.557 426.214C404.744 427.219 404.93 427.818 405.116 428.014C405.329 428.209 405.595 428.306 405.915 428.306C406.261 428.306 406.527 428.209 406.713 428.014C406.926 427.818 407.113 427.219 407.272 426.214C407.459 425.21 407.552 423.955 407.552 422.448C407.552 420.914 407.512 419.743 407.432 418.934C407.379 418.097 407.299 417.455 407.192 417.009C407.113 416.562 406.993 416.214 406.833 415.963C406.594 415.6 406.301 415.419 405.955 415.419C405.635 415.419 405.369 415.53 405.156 415.753C404.943 415.949 404.744 416.562 404.557 417.595C404.371 418.599 404.278 420.035 404.278 421.904C404.278 423.773 404.371 425.21 404.557 426.214ZM457.363 420.189V432.993C457.363 433.3 456.604 433.551 455.087 433.746C453.596 433.913 452.039 433.997 450.416 433.997C448.819 433.997 447.78 433.927 447.301 433.788C446.822 433.621 446.583 433.356 446.583 432.993V421.402C446.583 417.413 446.197 415.419 445.425 415.419C445.238 415.419 445.052 415.502 444.866 415.67C444.68 415.837 444.586 416.13 444.586 416.548V432.993C444.586 433.3 443.828 433.551 442.311 433.746C440.82 433.913 439.263 433.997 437.639 433.997C436.016 433.997 434.964 433.927 434.485 433.788C434.033 433.621 433.806 433.356 433.806 432.993V421.402C433.806 418.306 433.62 416.451 433.247 415.837C433.061 415.558 432.822 415.419 432.529 415.419C432.023 415.419 431.77 415.795 431.77 416.548V432.993C431.77 433.3 431.012 433.551 429.494 433.746C427.977 433.913 426.407 433.997 424.783 433.997C423.186 433.997 422.148 433.927 421.669 433.788C421.216 433.621 420.99 433.356 420.99 432.993V412.364C420.99 411.778 421.749 411.193 423.266 410.607C424.81 410.021 426.433 409.728 428.137 409.728C429.84 409.728 430.799 410.244 431.012 411.276L431.371 413.117H431.65C432.422 411.527 433.7 410.398 435.483 409.728C436.229 409.477 437.187 409.351 438.358 409.351C440.7 409.351 442.404 410.607 443.468 413.117C443.814 412.28 444.68 411.444 446.064 410.607C447.448 409.77 448.978 409.351 450.655 409.351C453.29 409.351 455.06 410.216 455.965 411.946C456.897 413.647 457.363 416.395 457.363 420.189ZM460.175 439.06V412.448C460.175 411.862 460.92 411.262 462.411 410.649C463.901 410.035 465.512 409.728 467.242 409.728C468.04 409.728 468.666 409.826 469.118 410.021C469.571 410.216 469.85 410.411 469.957 410.607C470.063 410.802 470.263 411.639 470.555 413.117H470.875C470.928 412.866 471.168 412.476 471.594 411.946C472.019 411.416 472.445 410.983 472.871 410.649C473.324 410.314 473.962 410.021 474.788 409.77C475.613 409.491 476.571 409.351 477.662 409.351C478.78 409.351 479.792 409.616 480.697 410.146C481.602 410.649 482.267 411.248 482.693 411.946C483.145 412.615 483.491 413.48 483.731 414.54C483.997 415.572 484.144 416.409 484.17 417.051C484.223 417.664 484.25 418.571 484.25 419.77C484.25 420.942 484.21 422.114 484.13 423.285C484.05 424.429 483.904 425.601 483.691 426.8C483.478 428 483.172 429.032 482.773 429.897C482.373 430.761 481.868 431.542 481.256 432.24C480.031 433.635 478.235 434.332 475.866 434.332C475.014 434.332 474.255 434.206 473.59 433.955C472.951 433.676 472.472 433.356 472.153 432.993C471.487 432.24 471.101 431.57 470.995 430.984L470.955 430.566H470.635L471.194 434.332V439.06C471.194 439.367 470.422 439.604 468.879 439.772C467.361 439.967 465.791 440.064 464.167 440.064C462.57 440.064 461.506 439.981 460.973 439.813C460.441 439.674 460.175 439.423 460.175 439.06ZM473.43 421.737C473.43 419.366 473.31 417.706 473.071 416.758C472.831 415.809 472.472 415.335 471.993 415.335C471.514 415.335 471.168 415.614 470.955 416.172V427.135C470.955 427.86 471.314 428.223 472.033 428.223C472.964 428.223 473.43 426.061 473.43 421.737ZM494.236 434.374C491.813 434.374 489.91 433.774 488.526 432.574C487.967 432.072 487.475 431.333 487.049 430.357C486.65 429.38 486.45 428.237 486.45 426.926C486.45 425.615 486.743 424.471 487.328 423.494C487.941 422.518 488.672 421.765 489.524 421.235C490.376 420.705 491.374 420.273 492.519 419.938C494.249 419.464 496.152 419.226 498.228 419.226H499.546C499.546 418.083 499.173 417.274 498.428 416.8C498.108 416.604 497.616 416.507 496.95 416.507C496.312 416.507 495.526 416.688 494.595 417.051C493.69 417.413 492.931 417.79 492.319 418.18C491.707 418.543 491.294 418.724 491.081 418.724C490.602 418.724 489.95 418.069 489.125 416.758C488.3 415.419 487.887 414.205 487.887 413.117C487.887 412.755 488.38 412.28 489.365 411.695C490.349 411.109 491.733 410.579 493.517 410.105C495.327 409.602 497.084 409.351 498.787 409.351C500.491 409.351 501.954 409.505 503.179 409.812C504.43 410.091 505.441 410.439 506.213 410.858C507.012 411.276 507.677 411.834 508.21 412.532C508.769 413.229 509.181 413.857 509.447 414.414C509.74 414.972 509.953 415.698 510.086 416.59C510.272 417.622 510.366 418.892 510.366 420.398V432.993C510.366 433.3 509.647 433.551 508.21 433.746C506.799 433.913 505.388 433.997 503.977 433.997C502.593 433.997 501.688 433.955 501.262 433.872C500.863 433.788 500.624 433.69 500.544 433.579C500.464 433.467 500.397 433.272 500.344 432.993L500.025 430.608H499.705C499.04 433.118 497.217 434.374 494.236 434.374ZM499.586 427.428V422.532C498.894 422.532 498.335 422.839 497.909 423.453C497.483 424.066 497.27 424.764 497.27 425.545C497.27 427.386 497.669 428.306 498.468 428.306C498.814 428.306 499.08 428.223 499.266 428.055C499.479 427.86 499.586 427.651 499.586 427.428ZM537.238 420.105V432.993C537.238 433.3 536.479 433.551 534.962 433.746C533.445 433.913 531.874 433.997 530.251 433.997C528.654 433.997 527.616 433.927 527.136 433.788C526.684 433.621 526.458 433.356 526.458 432.993V419.687C526.458 418.431 526.404 417.609 526.298 417.218C526.218 416.827 526.138 416.479 526.058 416.172C525.872 415.642 525.539 415.377 525.06 415.377C524.315 415.377 523.942 415.753 523.942 416.507V432.993C523.942 433.3 523.184 433.551 521.667 433.746C520.176 433.913 518.619 433.997 516.995 433.997C515.398 433.997 514.36 433.927 513.881 433.788C513.402 433.621 513.162 433.356 513.162 432.993V412.364C513.162 411.778 513.921 411.193 515.438 410.607C516.982 410.021 518.606 409.728 520.309 409.728C522.013 409.728 522.971 410.244 523.184 411.276L523.543 413.117H523.823C524.594 411.499 525.925 410.37 527.815 409.728C528.587 409.477 529.439 409.351 530.37 409.351C533.059 409.351 534.869 410.202 535.8 411.904C536.759 413.578 537.238 416.311 537.238 420.105ZM551.006 412.364V432.993C551.006 433.3 550.234 433.551 548.69 433.746C547.173 433.913 545.603 433.997 543.979 433.997C542.382 433.997 541.344 433.927 540.865 433.788C540.412 433.621 540.186 433.356 540.186 432.993V413.117C540.186 412.504 540.931 411.904 542.422 411.318C543.939 410.704 545.589 410.398 547.373 410.398C549.795 410.398 551.006 411.053 551.006 412.364ZM545.576 401.359C547.333 401.359 548.704 401.638 549.689 402.196C550.7 402.726 551.206 403.703 551.206 405.125C551.206 407.636 549.343 408.891 545.616 408.891C541.89 408.891 540.026 407.636 540.026 405.125C540.026 402.615 541.876 401.359 545.576 401.359ZM566.282 434.374C564.286 434.374 562.569 434.192 561.132 433.83C559.695 433.467 558.39 432.826 557.219 431.905C554.797 430.064 553.586 426.633 553.586 421.612C553.586 417.148 554.824 413.954 557.299 412.029C559.615 410.244 562.609 409.351 566.282 409.351C567.853 409.351 569.197 409.435 570.315 409.602C571.433 409.742 572.564 410.063 573.709 410.565C574.88 411.067 575.811 411.75 576.503 412.615C577.222 413.48 577.808 414.679 578.26 416.214C578.713 417.72 578.939 419.519 578.939 421.612C578.939 425.852 577.794 429.046 575.505 431.194C573.216 433.314 570.142 434.374 566.282 434.374ZM564.885 426.214C565.071 427.219 565.258 427.818 565.444 428.014C565.657 428.209 565.923 428.306 566.242 428.306C566.588 428.306 566.855 428.209 567.041 428.014C567.254 427.818 567.44 427.219 567.6 426.214C567.786 425.21 567.879 423.955 567.879 422.448C567.879 420.914 567.839 419.743 567.76 418.934C567.706 418.097 567.627 417.455 567.52 417.009C567.44 416.562 567.32 416.214 567.161 415.963C566.921 415.6 566.628 415.419 566.282 415.419C565.963 415.419 565.697 415.53 565.484 415.753C565.271 415.949 565.071 416.562 564.885 417.595C564.699 418.599 564.605 420.035 564.605 421.904C564.605 423.773 564.699 425.21 564.885 426.214ZM605.392 420.105V432.993C605.392 433.3 604.634 433.551 603.117 433.746C601.599 433.913 600.029 433.997 598.405 433.997C596.808 433.997 595.77 433.927 595.291 433.788C594.839 433.621 594.612 433.356 594.612 432.993V419.687C594.612 418.431 594.559 417.609 594.453 417.218C594.373 416.827 594.293 416.479 594.213 416.172C594.027 415.642 593.694 415.377 593.215 415.377C592.47 415.377 592.097 415.753 592.097 416.507V432.993C592.097 433.3 591.339 433.551 589.821 433.746C588.331 433.913 586.774 433.997 585.15 433.997C583.553 433.997 582.515 433.927 582.036 433.788C581.557 433.621 581.317 433.356 581.317 432.993V412.364C581.317 411.778 582.076 411.193 583.593 410.607C585.137 410.021 586.76 409.728 588.464 409.728C590.167 409.728 591.126 410.244 591.338 411.276L591.698 413.117H591.977C592.749 411.499 594.08 410.37 595.97 409.728C596.742 409.477 597.594 409.351 598.525 409.351C601.214 409.351 603.024 410.202 603.955 411.904C604.913 413.578 605.392 416.311 605.392 420.105Z" fill="#24425C"/>
<path d="M300.645 353.588C298.649 355.122 295.854 356.413 292.26 357.459C288.734 358.435 284.142 358.923 278.486 358.923C272.896 358.923 267.573 358.435 262.516 357.459C257.458 356.482 253.832 355.401 251.636 354.216C249.44 353.03 248.342 351.88 248.342 350.764C248.342 346.858 248.874 342.813 249.939 338.629C251.004 334.375 252.268 332.248 253.732 332.248C253.998 332.248 256.76 333.19 262.017 335.072C267.274 336.955 271.233 337.897 273.895 337.897C276.556 337.897 278.286 337.618 279.085 337.06C279.883 336.432 280.283 335.561 280.283 334.445C280.283 333.329 279.551 332.353 278.087 331.516C276.623 330.609 274.793 329.842 272.597 329.214C270.401 328.517 268.006 327.541 265.41 326.285C262.882 325.03 260.519 323.635 258.324 322.101C256.128 320.567 254.298 318.405 252.834 315.615C251.37 312.756 250.638 309.513 250.638 305.887C250.638 290.405 259.455 282.664 277.089 282.664C283.676 282.664 289.366 283.117 294.157 284.024C298.948 284.86 302.308 285.837 304.238 286.953C306.235 287.999 307.233 289.045 307.233 290.091C307.233 293.717 306.401 297.623 304.737 301.807C303.14 305.991 301.577 308.084 300.046 308.084C299.78 308.084 298.915 307.77 297.451 307.142C293.059 305.12 289.399 304.108 286.471 304.108C283.61 304.108 281.647 304.387 280.582 304.945C279.584 305.503 279.085 306.375 279.085 307.56C279.085 308.676 279.817 309.618 281.281 310.385C282.745 311.082 284.541 311.745 286.671 312.372C288.867 312.93 291.229 313.837 293.758 315.092C296.353 316.278 298.748 317.707 300.944 319.381C303.14 320.985 304.97 323.287 306.434 326.285C307.898 329.284 308.63 332.771 308.63 336.746C308.63 340.931 307.599 344.731 305.536 348.148C304.272 350.241 302.641 352.054 300.645 353.588ZM334.712 358.923C327.259 358.923 322.035 356.901 319.041 352.856C316.113 348.811 314.649 341.767 314.649 331.725V303.272C314.649 301.877 316.612 300.552 320.538 299.296C324.464 297.971 328.59 297.309 332.915 297.309C338.704 297.309 341.599 298.878 341.599 302.016V328.587C341.599 333.887 341.799 337.757 342.198 340.198C342.597 342.569 343.595 343.755 345.192 343.755C347.322 343.755 348.386 342.813 348.386 340.931V303.272C348.386 301.807 350.449 300.447 354.575 299.192C358.7 297.937 363.192 297.309 368.05 297.309C372.907 297.309 375.336 298.669 375.336 301.389V355.262C375.336 356.238 373.24 356.936 369.048 357.354C364.856 357.772 360.73 357.982 356.671 357.982C352.612 357.982 350.549 357.424 350.482 356.308L349.484 349.508H348.686C348.087 352.019 346.889 354.076 345.092 355.68C344.161 356.517 342.763 357.284 340.9 357.982C339.103 358.609 337.041 358.923 334.712 358.923ZM442.485 323.252V355.471C442.485 356.238 440.588 356.866 436.795 357.354C433.002 357.772 429.076 357.982 425.017 357.982C421.025 357.982 418.43 357.807 417.232 357.459C416.101 357.04 415.535 356.378 415.535 355.471V322.206C415.535 319.067 415.402 317.01 415.136 316.034C414.936 315.057 414.736 314.186 414.537 313.419C414.071 312.094 413.239 311.431 412.041 311.431C410.178 311.431 409.247 312.372 409.247 314.255V355.471C409.247 356.238 407.35 356.866 403.557 357.354C399.831 357.772 395.938 357.982 391.879 357.982C387.886 357.982 385.291 357.807 384.093 357.459C382.896 357.04 382.297 356.378 382.297 355.471V303.899C382.297 302.435 384.193 300.97 387.986 299.506C391.846 298.041 395.905 297.309 400.163 297.309C404.422 297.309 406.818 298.599 407.35 301.179L408.248 305.782H408.947C410.877 301.737 414.204 298.913 418.929 297.309C420.858 296.681 422.988 296.367 425.317 296.367C432.038 296.367 436.563 298.494 438.892 302.748C441.287 306.933 442.485 313.767 442.485 323.252ZM476.906 303.899V355.471C476.906 356.238 474.977 356.866 471.117 357.354C467.324 357.772 463.398 357.982 459.339 357.982C455.346 357.982 452.751 357.807 451.553 357.459C450.422 357.04 449.856 356.378 449.856 355.471V305.782C449.856 304.248 451.72 302.749 455.446 301.284C459.239 299.75 463.365 298.983 467.823 298.983C473.879 298.983 476.906 300.621 476.906 303.899ZM463.331 276.387C467.723 276.387 471.15 277.085 473.612 278.479C476.141 279.804 477.405 282.245 477.405 285.802C477.405 292.078 472.747 295.217 463.431 295.217C454.115 295.217 449.457 292.078 449.457 285.802C449.457 279.525 454.082 276.387 463.331 276.387Z" fill="#24425C"/>
</g>
</g>
<defs>
<clipPath id="clip0_463_389">
<rect width="750" height="750" fill="white"/>
</clipPath>
</defs>
</svg>
